<svg width="15" height="15" viewBox="0 0 15 15" fill="none" xmlns="http://www.w3.org/2000/svg">
<g clip-path="url(#clip0_4_20)">
<path d="M7.50002 0C7.20921 0 6.97349 0.235714 6.97349 0.526531V10.6653L5.17349 8.86531C4.96839 8.6602 4.63472 8.6602 4.42961 8.86531C4.22451 9.07041 4.22451 9.40408 4.42961 9.60918L7.12655 12.3061C7.22757 12.4071 7.36227 12.4592 7.49696 12.4592C7.63165 12.4592 7.76635 12.4071 7.86737 12.3061L10.5643 9.60918C10.7694 9.40408 10.7694 9.07041 10.5643 8.86531C10.3592 8.6602 10.0255 8.6602 9.82043 8.86531L8.02043 10.6653V0.523469C8.02349 0.232653 7.79084 0 7.50002 0Z" fill="#1D225F"/>
<path d="M14.1459 14.4765V11.4245C14.1459 11.1337 13.9102 10.898 13.6194 10.898C13.3286 10.898 13.0929 11.1337 13.0929 11.4245V13.9531H1.9041V11.4245C1.9041 11.1337 1.66838 10.898 1.38063 10.898C1.09287 10.898 0.854095 11.1337 0.854095 11.4245V14.4765C0.854095 14.7673 1.08981 15 1.38063 15H13.6194C13.9102 15 14.1459 14.7673 14.1459 14.4765Z" fill="#1D225F"/>
</g>
<defs>
<clipPath id="clip0_4_20">
<rect width="15" height="15" fill="white"/>
</clipPath>
</defs>
</svg>
